<svg width="40" height="40" viewBox="0 0 40 40" fill="none" xmlns="http://www.w3.org/2000/svg">
<mask id="mask0_4008_47181" style="mask-type:alpha" maskUnits="userSpaceOnUse" x="8" y="8" width="24" height="24">
<rect x="8" y="8" width="24" height="24" fill="#D9D9D9"/>
</mask>
<g mask="url(#mask0_4008_47181)">
<path d="M12 26V17C12 16.6833 12.0708 16.3833 12.2125 16.1C12.3542 15.8167 12.55 15.5833 12.8 15.4L18.8 10.9C19.15 10.6333 19.55 10.5 20 10.5C20.45 10.5 20.85 10.6333 21.2 10.9L27.2 15.4C27.45 15.5833 27.6458 15.8167 27.7875 16.1C27.9292 16.3833 28 16.6833 28 17V26C28 26.55 27.8042 27.0208 27.4125 27.4125C27.0208 27.8042 26.55 28 26 28H23C22.7167 28 22.4792 27.9042 22.2875 27.7125C22.0958 27.5208 22 27.2833 22 27V22C22 21.7167 21.9042 21.4792 21.7125 21.2875C21.5208 21.0958 21.2833 21 21 21H19C18.7167 21 18.4792 21.0958 18.2875 21.2875C18.0958 21.4792 18 21.7167 18 22V27C18 27.2833 17.9042 27.5208 17.7125 27.7125C17.5208 27.9042 17.2833 28 17 28H14C13.45 28 12.9792 27.8042 12.5875 27.4125C12.1958 27.0208 12 26.55 12 26Z" fill="#D8CBE1"/>
</g>
</svg>
