<svg width="20" height="20" viewBox="0 0 20 20" fill="none" xmlns="http://www.w3.org/2000/svg">
<path fill-rule="evenodd" clip-rule="evenodd" d="M10.0099 0.814941C4.93993 0.814941 0.819824 4.92493 0.819824 9.9949C0.819824 12.3749 1.72997 14.645 3.38988 16.3749C5.12987 18.1849 7.47997 19.1849 10.0099 19.1849C12.5199 19.1849 14.8699 18.1849 16.6099 16.3749C18.2699 14.645 19.18 12.3749 19.18 9.9949C19.18 4.92493 15.0698 0.814941 10.0099 0.814941ZM15.7399 15.5449C14.23 17.1149 12.19 17.9849 10.0099 17.9849C7.80981 17.9849 5.76989 17.1149 4.25988 15.5449C4.22997 15.5049 4.18993 15.475 4.1599 15.4349C4.39989 15.085 4.67992 14.7549 4.97997 14.4449C6.09985 13.325 7.57983 12.5549 8.99987 12.5549H11.0099C12.8098 12.5549 14.71 13.7949 15.8399 15.4349C15.8098 15.475 15.7699 15.5049 15.7399 15.5449ZM13.5698 7.88495C13.5698 9.8549 11.97 11.455 9.99987 11.455C8.02987 11.455 6.42992 9.8549 6.42992 7.88495C6.42992 5.91492 8.02987 4.31494 9.99987 4.31494C11.97 4.31494 13.5698 5.91492 13.5698 7.88495Z" fill="#CACACA"/>
</svg>